<svg width="98" height="98" viewBox="0 0 98 98" fill="none" xmlns="http://www.w3.org/2000/svg">
<path d="M68 8C73.8348 8 79.4305 10.3179 83.5564 14.4437C87.6822 18.5695 90 24.1652 90 30V68C90 73.8348 87.6822 79.4305 83.5564 83.5564C79.4305 87.6822 73.8348 90 68 90H30C24.1652 90 18.5695 87.6822 14.4437 83.5564C10.3179 79.4305 8 73.8348 8 68V30C8 24.1652 10.3179 18.5695 14.4437 14.4437C18.5695 10.3179 24.1652 8 30 8H68ZM68 0H30C22.0508 0.0237409 14.434 3.19207 8.81302 8.81302C3.19207 14.434 0.0237409 22.0508 0 30V68C0.0237409 75.9492 3.19207 83.566 8.81302 89.187C14.434 94.8079 22.0508 97.9763 30 98H68C75.9492 97.9763 83.566 94.8079 89.187 89.187C94.8079 83.566 97.9763 75.9492 98 68V30C97.9763 22.0508 94.8079 14.434 89.187 8.81302C83.566 3.19207 75.9492 0.0237409 68 0Z" fill="black"/>
<path d="M75.14 17C74.0067 17 72.8988 17.3361 71.9566 17.9657C71.0143 18.5953 70.2798 19.4902 69.8461 20.5372C69.4125 21.5842 69.299 22.7364 69.5201 23.8479C69.7412 24.9594 70.2869 25.9804 71.0883 26.7817C71.8896 27.5831 72.9106 28.1288 74.0221 28.3499C75.1336 28.571 76.2857 28.4575 77.3328 28.0238C78.3798 27.5901 79.2747 26.8557 79.9043 25.9134C80.5339 24.9711 80.87 23.8633 80.87 22.73C80.87 21.9775 80.7218 21.2324 80.4338 20.5372C80.1458 19.842 79.7238 19.2104 79.1917 18.6783C78.6596 18.1462 78.0279 17.7241 77.3328 17.4362C76.6376 17.1482 75.8924 17 75.14 17Z" fill="black"/>
<path d="M49.27 31.47C52.7676 31.468 56.1873 32.5035 59.0963 34.4455C62.0053 36.3874 64.2729 39.1485 65.6123 42.3796C66.9517 45.6106 67.3027 49.1662 66.6208 52.5968C65.9389 56.0273 64.2549 59.1785 61.7817 61.6517C59.3085 64.1249 56.1573 65.8089 52.7268 66.4908C49.2963 67.1727 45.7406 66.8217 42.5096 65.4823C39.2786 64.1429 36.5174 61.8753 34.5755 58.9663C32.6335 56.0573 31.598 52.6376 31.6 49.14C31.608 44.4561 33.4722 39.9663 36.7842 36.6542C40.0963 33.3422 44.5861 31.478 49.27 31.47ZM49.27 23.47C44.1927 23.4799 39.2323 24.9947 35.0156 27.8229C30.7989 30.6511 27.5152 34.6658 25.5795 39.3596C23.6438 44.0535 23.143 49.2158 24.1403 54.1942C25.1376 59.1726 27.5883 63.7436 31.1827 67.3297C34.7771 70.9157 39.3539 73.3557 44.3346 74.3414C49.3153 75.3271 54.4765 74.8142 59.1658 72.8675C63.8551 70.9209 67.8621 67.6279 70.6805 63.4046C73.4988 59.1813 75.002 54.2173 75 49.14C74.9987 45.7643 74.3319 42.422 73.0376 39.3042C71.7434 36.1865 69.8471 33.3545 67.4573 30.9703C65.0675 28.5861 62.2311 26.6964 59.1104 25.4095C55.9896 24.1225 52.6457 23.4634 49.27 23.47Z" fill="black"/>
</svg>
