<svg width="172" height="36" viewBox="0 0 172 36" fill="none" xmlns="http://www.w3.org/2000/svg">
<rect x="0.5" y="0.5" width="35" height="35" stroke="black"/>
<path d="M25.778 18.718H30.008V24.262C29.816 24.406 29.582 24.538 29.306 24.658C29.042 24.778 28.754 24.88 28.442 24.964C28.142 25.048 27.824 25.108 27.488 25.144C27.164 25.192 26.846 25.216 26.534 25.216C25.73 25.216 24.992 25.09 24.32 24.838C23.648 24.574 23.066 24.178 22.574 23.65C22.082 23.11 21.698 22.432 21.422 21.616C21.146 20.788 21.008 19.816 21.008 18.7C21.008 17.536 21.176 16.54 21.512 15.712C21.848 14.884 22.286 14.212 22.826 13.696C23.366 13.168 23.972 12.784 24.644 12.544C25.316 12.304 25.988 12.184 26.66 12.184C27.38 12.184 27.974 12.226 28.442 12.31C28.91 12.382 29.306 12.484 29.63 12.616L29.252 13.93C28.676 13.654 27.854 13.516 26.786 13.516C26.282 13.516 25.778 13.606 25.274 13.786C24.782 13.954 24.338 14.242 23.942 14.65C23.546 15.058 23.222 15.592 22.97 16.252C22.718 16.912 22.592 17.728 22.592 18.7C22.592 19.588 22.694 20.356 22.898 21.004C23.102 21.652 23.384 22.192 23.744 22.624C24.116 23.044 24.56 23.362 25.076 23.578C25.592 23.782 26.156 23.884 26.768 23.884C27.536 23.884 28.19 23.734 28.73 23.434V19.924L25.778 19.564V18.718ZM40.7955 17.386C40.4355 17.266 40.0935 17.206 39.7695 17.206C39.2535 17.206 38.8455 17.35 38.5455 17.638C38.2455 17.914 38.0595 18.268 37.9875 18.7V25H36.5475V16H37.5555L37.8255 17.098H37.8975C38.1255 16.69 38.3955 16.378 38.7075 16.162C39.0315 15.934 39.4395 15.82 39.9315 15.82C40.2795 15.82 40.6695 15.88 41.1015 16L40.7955 17.386ZM46.6607 16.666C47.1167 16.39 47.6447 16.186 48.2447 16.054C48.8567 15.922 49.4927 15.856 50.1527 15.856C50.7767 15.856 51.2747 15.94 51.6467 16.108C52.0307 16.276 52.3187 16.498 52.5107 16.774C52.7147 17.038 52.8467 17.332 52.9067 17.656C52.9787 17.98 53.0147 18.304 53.0147 18.628C53.0147 19.348 52.9967 20.05 52.9607 20.734C52.9247 21.418 52.9067 22.066 52.9067 22.678C52.9067 23.122 52.9247 23.542 52.9607 23.938C52.9967 24.334 53.0627 24.7 53.1587 25.036H52.0967L51.7187 23.776H51.6287C51.5207 23.944 51.3827 24.112 51.2147 24.28C51.0587 24.436 50.8667 24.58 50.6387 24.712C50.4107 24.832 50.1467 24.934 49.8467 25.018C49.5467 25.102 49.2047 25.144 48.8207 25.144C48.4367 25.144 48.0767 25.084 47.7407 24.964C47.4167 24.844 47.1347 24.676 46.8947 24.46C46.6547 24.232 46.4627 23.962 46.3187 23.65C46.1867 23.338 46.1207 22.984 46.1207 22.588C46.1207 22.06 46.2287 21.622 46.4447 21.274C46.6607 20.914 46.9607 20.632 47.3447 20.428C47.7407 20.212 48.2087 20.062 48.7487 19.978C49.3007 19.882 49.9067 19.834 50.5667 19.834C50.7347 19.834 50.8967 19.834 51.0527 19.834C51.2207 19.834 51.3887 19.846 51.5567 19.87C51.5927 19.51 51.6107 19.186 51.6107 18.898C51.6107 18.238 51.4787 17.776 51.2147 17.512C50.9507 17.248 50.4707 17.116 49.7747 17.116C49.5707 17.116 49.3487 17.134 49.1087 17.17C48.8807 17.194 48.6407 17.236 48.3887 17.296C48.1487 17.344 47.9147 17.41 47.6867 17.494C47.4707 17.566 47.2787 17.65 47.1107 17.746L46.6607 16.666ZM49.2167 23.884C49.5527 23.884 49.8527 23.842 50.1167 23.758C50.3807 23.662 50.6087 23.548 50.8007 23.416C50.9927 23.272 51.1487 23.116 51.2687 22.948C51.4007 22.78 51.4967 22.618 51.5567 22.462V20.968C51.3887 20.956 51.2147 20.95 51.0347 20.95C50.8667 20.938 50.6987 20.932 50.5307 20.932C50.1587 20.932 49.7927 20.956 49.4327 21.004C49.0847 21.04 48.7727 21.118 48.4967 21.238C48.2327 21.346 48.0167 21.502 47.8487 21.706C47.6927 21.898 47.6147 22.144 47.6147 22.444C47.6147 22.864 47.7647 23.212 48.0647 23.488C48.3647 23.752 48.7487 23.884 49.2167 23.884ZM59.8744 16H60.8644L61.1344 17.08H61.2064C61.4824 16.66 61.8364 16.342 62.2684 16.126C62.7124 15.898 63.2164 15.784 63.7804 15.784C64.9804 15.784 65.8744 16.138 66.4624 16.846C67.0504 17.554 67.3444 18.712 67.3444 20.32C67.3444 21.076 67.2424 21.76 67.0384 22.372C66.8464 22.972 66.5704 23.482 66.2104 23.902C65.8504 24.322 65.4124 24.646 64.8964 24.874C64.3924 25.102 63.8284 25.216 63.2044 25.216C62.7604 25.216 62.4064 25.186 62.1424 25.126C61.8904 25.078 61.6144 24.988 61.3144 24.856V28.6H59.8744V16ZM63.5104 17.044C62.8984 17.044 62.4124 17.206 62.0524 17.53C61.7044 17.842 61.4584 18.322 61.3144 18.97V23.434C61.5304 23.602 61.7764 23.734 62.0524 23.83C62.3284 23.914 62.6944 23.956 63.1504 23.956C63.9784 23.956 64.6324 23.65 65.1124 23.038C65.6044 22.414 65.8504 21.502 65.8504 20.302C65.8504 19.81 65.8084 19.366 65.7244 18.97C65.6404 18.562 65.5024 18.22 65.3104 17.944C65.1304 17.656 64.8904 17.434 64.5904 17.278C64.3024 17.122 63.9424 17.044 63.5104 17.044ZM79.5306 25V19.87C79.5306 19.402 79.5006 18.994 79.4406 18.646C79.3926 18.286 79.2966 17.992 79.1526 17.764C79.0086 17.524 78.8106 17.344 78.5586 17.224C78.3186 17.104 78.0006 17.044 77.6046 17.044C77.0406 17.044 76.5306 17.23 76.0746 17.602C75.6186 17.962 75.3246 18.43 75.1926 19.006V25H73.7526V12.4H75.1926V17.008H75.2646C75.5766 16.636 75.9486 16.342 76.3806 16.126C76.8246 15.898 77.3706 15.784 78.0186 15.784C78.5226 15.784 78.9606 15.844 79.3326 15.964C79.7046 16.072 80.0106 16.27 80.2506 16.558C80.5026 16.846 80.6826 17.236 80.7906 17.728C80.9106 18.208 80.9706 18.82 80.9706 19.564V25H79.5306ZM90.3824 21.832L90.8864 23.56H90.9764L91.3724 21.814L93.1184 16H94.5764L91.9124 24.082C91.7084 24.67 91.5044 25.24 91.3004 25.792C91.1084 26.344 90.8924 26.836 90.6524 27.268C90.4124 27.7 90.1424 28.042 89.8424 28.294C89.5424 28.558 89.1944 28.69 88.7984 28.69C88.3664 28.69 88.0124 28.63 87.7364 28.51L87.9884 27.268C88.1444 27.328 88.2944 27.358 88.4384 27.358C88.7744 27.358 89.0984 27.178 89.4104 26.818C89.7224 26.47 89.9804 25.864 90.1844 25L86.5664 16H88.2224L90.3824 21.832ZM116.236 19.222H110.188V25H108.694V12.4H110.188V17.89H116.236V12.4H117.73V25H116.236V19.222ZM124.279 20.5C124.279 18.976 124.615 17.812 125.287 17.008C125.971 16.192 126.949 15.784 128.221 15.784C128.893 15.784 129.475 15.898 129.967 16.126C130.471 16.342 130.885 16.66 131.209 17.08C131.533 17.488 131.773 17.986 131.929 18.574C132.085 19.15 132.163 19.792 132.163 20.5C132.163 22.024 131.821 23.194 131.137 24.01C130.465 24.814 129.493 25.216 128.221 25.216C127.549 25.216 126.961 25.108 126.457 24.892C125.965 24.664 125.557 24.346 125.233 23.938C124.909 23.518 124.669 23.02 124.513 22.444C124.357 21.856 124.279 21.208 124.279 20.5ZM125.773 20.5C125.773 20.956 125.815 21.394 125.899 21.814C125.995 22.234 126.139 22.6 126.331 22.912C126.523 23.224 126.775 23.476 127.087 23.668C127.399 23.86 127.777 23.956 128.221 23.956C129.853 23.968 130.669 22.816 130.669 20.5C130.669 20.032 130.621 19.588 130.525 19.168C130.441 18.748 130.303 18.382 130.111 18.07C129.919 17.758 129.667 17.512 129.355 17.332C129.043 17.14 128.665 17.044 128.221 17.044C126.589 17.032 125.773 18.184 125.773 20.5ZM139.87 16V21.13C139.87 21.598 139.894 22.012 139.942 22.372C140.002 22.72 140.098 23.014 140.23 23.254C140.362 23.482 140.542 23.656 140.77 23.776C140.998 23.896 141.286 23.956 141.634 23.956C141.958 23.956 142.246 23.908 142.498 23.812C142.75 23.704 142.972 23.56 143.164 23.38C143.368 23.2 143.542 22.996 143.686 22.768C143.842 22.528 143.968 22.276 144.064 22.012V16H145.504V22.444C145.504 22.876 145.516 23.326 145.54 23.794C145.576 24.25 145.63 24.652 145.702 25H144.712L144.352 23.578H144.262C143.986 24.046 143.614 24.436 143.146 24.748C142.678 25.06 142.084 25.216 141.364 25.216C140.884 25.216 140.458 25.156 140.086 25.036C139.726 24.928 139.42 24.73 139.168 24.442C138.928 24.154 138.742 23.77 138.61 23.29C138.49 22.798 138.43 22.18 138.43 21.436V16H139.87ZM156.377 22.552C156.377 22.192 156.269 21.91 156.053 21.706C155.837 21.502 155.567 21.334 155.243 21.202C154.931 21.058 154.583 20.926 154.199 20.806C153.827 20.674 153.479 20.512 153.155 20.32C152.843 20.116 152.579 19.858 152.363 19.546C152.147 19.234 152.039 18.814 152.039 18.286C152.039 17.422 152.285 16.792 152.777 16.396C153.269 15.988 153.953 15.784 154.829 15.784C155.477 15.784 156.017 15.844 156.449 15.964C156.893 16.072 157.277 16.204 157.601 16.36L157.259 17.548C156.983 17.416 156.647 17.302 156.251 17.206C155.867 17.098 155.453 17.044 155.009 17.044C154.481 17.044 154.091 17.134 153.839 17.314C153.599 17.494 153.479 17.806 153.479 18.25C153.479 18.562 153.587 18.808 153.803 18.988C154.019 19.156 154.283 19.312 154.595 19.456C154.919 19.588 155.267 19.72 155.639 19.852C156.023 19.984 156.371 20.158 156.683 20.374C157.007 20.59 157.277 20.866 157.493 21.202C157.709 21.526 157.817 21.958 157.817 22.498C157.817 22.882 157.751 23.242 157.619 23.578C157.499 23.914 157.307 24.202 157.043 24.442C156.779 24.682 156.449 24.868 156.053 25C155.669 25.144 155.213 25.216 154.685 25.216C154.001 25.216 153.419 25.15 152.939 25.018C152.459 24.886 152.057 24.73 151.733 24.55L152.165 23.326C152.441 23.482 152.801 23.626 153.245 23.758C153.689 23.89 154.139 23.956 154.595 23.956C155.111 23.956 155.537 23.854 155.873 23.65C156.209 23.446 156.377 23.08 156.377 22.552ZM170.703 24.28C170.343 24.568 169.887 24.796 169.335 24.964C168.795 25.132 168.219 25.216 167.607 25.216C166.923 25.216 166.329 25.108 165.825 24.892C165.321 24.664 164.907 24.346 164.583 23.938C164.259 23.518 164.019 23.02 163.863 22.444C163.707 21.868 163.629 21.22 163.629 20.5C163.629 18.964 163.971 17.794 164.655 16.99C165.339 16.186 166.317 15.784 167.589 15.784C167.997 15.784 168.405 15.832 168.813 15.928C169.221 16.012 169.587 16.18 169.911 16.432C170.235 16.684 170.499 17.044 170.703 17.512C170.907 17.968 171.009 18.574 171.009 19.33C171.009 19.726 170.973 20.164 170.901 20.644H165.123C165.123 21.172 165.177 21.64 165.285 22.048C165.393 22.456 165.561 22.804 165.789 23.092C166.017 23.368 166.311 23.584 166.671 23.74C167.043 23.884 167.493 23.956 168.021 23.956C168.429 23.956 168.837 23.884 169.245 23.74C169.653 23.596 169.959 23.428 170.163 23.236L170.703 24.28ZM167.607 17.044C166.899 17.044 166.329 17.23 165.897 17.602C165.477 17.974 165.225 18.61 165.141 19.51H169.605C169.605 18.598 169.431 17.962 169.083 17.602C168.735 17.23 168.243 17.044 167.607 17.044Z" fill="black"/>
</svg>
